{
  "accessors": [
    {
      "bufferView": 0,
      "componentType": 5125,
      "count": 187041,
      "type": "SCALAR"
    },
    {
      "bufferView": 1,
      "componentType": 5126,
      "count": 33268,
      "max": [
        0.799139261245728,
        1.0,
        0.421560436487198
      ],
      "min": [
        -0.799139261245728,
        -1.0,
        -0.421560406684875
      ],
      "type": "VEC3"
    },
    {
      "bufferView": 2,
      "componentType": 5126,
      "count": 33268,
      "type": "VEC3"
    },
    {
      "bufferView": 3,
      "componentType": 5126,
      "count": 33268,
      "type": "VEC2"
    }
  ],
  "asset": {
    "generator": "Substance Painter 2019.2.2",
    "version": "2.0"
  },
  "bufferViews": [
    {
      "buffer": 0,
      "byteLength": 748164,
      "target": 34963
    },
    {
      "buffer": 0,
      "byteLength": 399216,
      "byteOffset": 748164,
      "target": 34962
    },
    {
      "buffer": 0,
      "byteLength": 399216,
      "byteOffset": 1147380,
      "target": 34962
    },
    {
      "buffer": 0,
      "byteLength": 266144,
      "byteOffset": 1546596,
      "target": 34962
    }
  ],
  "buffers": [
    {
      "byteLength": 1812740,
      "uri": "tshirt.bin"
    }
  ],
  "images": [
    {
      "uri": "DefaultMaterial_baseColor.png"
    },
    {
      "uri": "DefaultMaterial_occlusionRoughnessMetallic.png"
    },
    {
      "uri": "DefaultMaterial_normal.png"
    }
  ],
  "materials": [
    {
      "alphaMode": "OPAQUE",
      "name": "DefaultMaterial",
      "normalTexture": {
        "index": 2
      },
      "occlusionTexture": {
        "index": 1
      },
      "pbrMetallicRoughness": {
        "baseColorTexture": {
          "index": 0
        },
        "metallicRoughnessTexture": {
          "index": 1
        }
      }
    }
  ],
  "meshes": [
    {
      "name": "defaultobject",
      "primitives": [
        {
          "attributes": {
            "NORMAL": 2,
            "POSITION": 1,
            "TEXCOORD_0": 3
          },
          "indices": 0,
          "material": 0,
          "mode": 4
        }
      ]
    }
  ],
  "nodes": [
    {
      "children": [
        1
      ],
      "name": "tshirt.obj",
      "scale": [
        32.0735549926758,
        32.0735549926758,
        32.0735549926758
      ],
      "translation": [
        0.0560188293457031,
        120.075965881348,
        -1.39997673034668
      ]
    },
    {
      "children": [
        2
      ],
      "name": "defaultobject"
    },
    {
      "mesh": 0,
      "name": "defaultobject"
    }
  ],
  "samplers": [
    {
      "magFilter": 9729,
      "minFilter": 9985,
      "wrapS": 10497,
      "wrapT": 10497
    }
  ],
  "scene": 0,
  "scenes": [
    {
      "name": "Scene",
      "nodes": [
        0
      ]
    }
  ],
  "textures": [
    {
      "sampler": 0,
      "source": 0
    },
    {
      "sampler": 0,
      "source": 1
    },
    {
      "sampler": 0,
      "source": 2
    }
  ]
}